<svg id="Layer_1" data-name="Layer 1" xmlns="http://www.w3.org/2000/svg" viewBox="0 0 494 494"><defs><style>.cls-1{fill:#ccc;}</style></defs><path class="cls-1" d="M959,303a13.35,13.35,0,0,0-13-13.34v0H478.74v0l-.38,0a13.36,13.36,0,0,0,0,26.72l.38,0v0H946v0A13.35,13.35,0,0,0,959,303Z" transform="translate(-465 -56)"/><path class="cls-1" d="M712,550a13.35,13.35,0,0,0,13.34-13h0V69.74h0c0-.12,0-.25,0-.38a13.36,13.36,0,0,0-26.72,0c0,.13,0,.26,0,.38h0V537h0A13.35,13.35,0,0,0,712,550Z" transform="translate(-465 -56)"/></svg>