<svg id="Layer_1" data-name="Layer 1" xmlns="http://www.w3.org/2000/svg" viewBox="0 0 418.11 418.11"><path d="M898.38,125.62a24.49,24.49,0,0,0-33.55-1l0,0L495,494.38h0l-.36.34a24.5,24.5,0,1,0,34.65,34.65l.34-.36h0L899.44,159.21l0,0A24.49,24.49,0,0,0,898.38,125.62Z" transform="translate(-487.45 -118.45)"/><path d="M898.38,529.38a24.49,24.49,0,0,0,1-33.55l0,0L529.62,126h0c-.11-.12-.22-.25-.34-.37a24.5,24.5,0,1,0-34.65,34.65l.36.35h0L864.79,530.44l0,0A24.5,24.5,0,0,0,898.38,529.38Z" transform="translate(-487.45 -118.45)"/></svg>