<svg id="Layer_1" data-name="Layer 1" xmlns="http://www.w3.org/2000/svg" viewBox="0 0 496.39 496.39"><defs><style>.cls-1{fill:none;}.cls-2{fill:#d3c9c9;}.cls-3{fill:#adaaaa;}</style></defs><rect class="cls-1" x="0.19" y="0.19" width="496" height="496"/><path class="cls-2" d="M451.38,458.52l-20.19,0L353.37,341.81H353l.09,116.79H334.39l-.12-148.75h20.09l77.82,116.73h.4l-.09-116.79,18.77,0Z" transform="translate(-229.04 -191.09)"/><path class="cls-2" d="M549,307.16q31.26,0,51.16,21.17t19.93,55.89q0,34.61-19.95,55.67t-51,21.09q-32.16,0-51.76-21.77T477.7,386q0-36.61,19.79-57.7T549,307.16Zm-.09,137q22.62,0,36.66-15.86t14.12-44q0-29-14.39-44.64T549.19,324q-22.32,0-36.72,15.35t-14.37,47q0,25.88,14.13,41.85T548.88,444.14Z" transform="translate(-229.04 -191.09)"/><path class="cls-2" d="M346,568.35h-8.66l-.05-65.14h8.66Z" transform="translate(-229.04 -191.09)"/><path class="cls-2" d="M423.11,568.29h-8.18l0-54.52h-.18L396,568.31h-7.73l-18.7-55.4h-.27l0,55.41h-8.17l-.05-65.14H374l15.46,46.11q2.58,7.68,3,9.64h.18q1.2-3.78,3.46-10.45l15.51-45.33h11.47Z" transform="translate(-229.04 -191.09)"/><path class="cls-2" d="M490.82,568.24h-9.73l-7.66-19.81-27.19,0-7.18,19.83H430l25-65.15h9.29Zm-20-26.65q-8-21.14-9-24t-2.27-7.66h-.23A73.5,73.5,0,0,1,456,522.1l-7.27,19.51Z" transform="translate(-229.04 -191.09)"/><path class="cls-2" d="M555.69,559.08q-12.3,10.23-26.92,10.24-15,0-24.16-9.11t-9.19-24.28a39.83,39.83,0,0,1,3.74-17.22,27.85,27.85,0,0,1,11-12.36q7.31-4.38,17.88-4.39,11,0,17.62,4.81t9,14.45L547,523.41q-1.83-7-6.54-10.55t-12.31-3.53q-11.77,0-17.77,7.22t-6,18.84q0,8.72,2.92,14.48a19.44,19.44,0,0,0,8.63,8.73,26.57,26.57,0,0,0,12.42,2.94,30.68,30.68,0,0,0,19-6.72V542.73l-19.2,0V535l27.55,0Z" transform="translate(-229.04 -191.09)"/><path class="cls-2" d="M617.36,568.14l-48.65,0L568.66,503l47.14,0v7.73l-38.52,0v19.91l36,0v7.73l-36,0v22l40,0Z" transform="translate(-229.04 -191.09)"/><path class="cls-3" d="M445.38,454.52l-20.19,0L347.37,337.81H347l.09,116.79H328.39l-.12-148.75h20.09l77.82,116.73h.4l-.09-116.79,18.77,0Z" transform="translate(-229.04 -191.09)"/><path class="cls-3" d="M543,303.16q31.26,0,51.16,21.17t19.93,55.89q0,34.61-19.95,55.67t-51,21.09q-32.16,0-51.76-21.77T471.7,382q0-36.61,19.79-57.7T543,303.16Zm-.09,137q22.62,0,36.66-15.86t14.12-44q0-29-14.39-44.64T543.19,320q-22.32,0-36.72,15.35t-14.37,47q0,25.88,14.13,41.85T542.88,440.14Z" transform="translate(-229.04 -191.09)"/><path class="cls-3" d="M340,564.35h-8.66l-.05-65.14h8.66Z" transform="translate(-229.04 -191.09)"/><path class="cls-3" d="M417.11,564.29h-8.18l0-54.52h-.18L390,564.31h-7.73l-18.7-55.4h-.27l0,55.41h-8.17l-.05-65.14H368l15.46,46.11q2.58,7.68,3,9.64h.18q1.2-3.78,3.46-10.45l15.51-45.33h11.47Z" transform="translate(-229.04 -191.09)"/><path class="cls-3" d="M484.82,564.24h-9.73l-7.66-19.81-27.19,0-7.18,19.83H424l25-65.15h9.29Zm-20-26.65q-8-21.14-9-24t-2.27-7.66h-.23A73.5,73.5,0,0,1,450,518.1l-7.27,19.51Z" transform="translate(-229.04 -191.09)"/><path class="cls-3" d="M549.69,555.08q-12.3,10.23-26.92,10.24-15,0-24.16-9.11t-9.19-24.28a39.83,39.83,0,0,1,3.74-17.22,27.85,27.85,0,0,1,11-12.36q7.31-4.38,17.88-4.39,11,0,17.62,4.81t9,14.45L541,519.41q-1.83-7-6.54-10.55t-12.31-3.53q-11.78,0-17.77,7.22t-6,18.84q0,8.72,2.92,14.48a19.44,19.44,0,0,0,8.63,8.73,26.57,26.57,0,0,0,12.42,2.94,30.68,30.68,0,0,0,19-6.72V538.73l-19.2,0V531l27.55,0Z" transform="translate(-229.04 -191.09)"/><path class="cls-3" d="M611.36,564.14l-48.65,0L562.66,499l47.14,0v7.73l-38.52,0v19.91l36,0v7.73l-36,0v22l40,0Z" transform="translate(-229.04 -191.09)"/></svg>